<svg width="82" height="67" viewBox="0 0 82 67" fill="none" xmlns="http://www.w3.org/2000/svg">
<g filter="url(#filter0_d_21_832)">
<path d="M65.9537 24.8115H16.234C16.132 24.8121 16.0316 24.8358 15.9401 24.8807C15.8486 24.9256 15.7685 24.9906 15.7056 25.0709C15.6428 25.1511 15.599 25.2445 15.5774 25.3441C15.5558 25.4437 15.557 25.5469 15.5809 25.646L20.9641 47.1693C21.0931 47.6222 21.4895 48.9995 22.9528 48.9995H59.2349C60.7036 48.9995 61.096 47.6208 61.2304 47.1465L66.6055 25.646C66.6302 25.547 66.632 25.4436 66.6108 25.3438C66.5896 25.244 66.5459 25.1503 66.4831 25.0699C66.4203 24.9894 66.34 24.9243 66.2482 24.8796C66.1565 24.8348 66.0558 24.8116 65.9537 24.8115ZM59.9336 46.7998C59.6891 47.6558 59.4364 47.6558 59.2349 47.6558H22.9528C22.7526 47.6558 22.5013 47.6558 22.2608 46.8213L17.0953 26.1553H65.0937L59.9336 46.7998Z" fill="#282E14"/>
<path d="M37.7344 43.6251C37.9126 43.6251 38.0835 43.5543 38.2095 43.4283C38.3355 43.3023 38.4063 43.1314 38.4063 42.9532V30.8592C38.4063 30.681 38.3355 30.5101 38.2095 30.3841C38.0835 30.2581 37.9126 30.1873 37.7344 30.1873C37.5562 30.1873 37.3853 30.2581 37.2593 30.3841C37.1333 30.5101 37.0625 30.681 37.0625 30.8592V42.9532C37.0625 43.1314 37.1333 43.3023 37.2593 43.4283C37.3853 43.5543 37.5562 43.6251 37.7344 43.6251ZM28.3266 43.6251C28.4212 43.6253 28.5148 43.6055 28.6012 43.567C28.6876 43.5286 28.7649 43.4723 28.8281 43.4019C28.8913 43.3315 28.9389 43.2486 28.9678 43.1585C28.9967 43.0684 29.0062 42.9733 28.9958 42.8793L27.652 30.7853C27.6324 30.6082 27.5433 30.4461 27.4042 30.3347C27.2651 30.2233 27.0874 30.1717 26.9103 30.1913C26.7331 30.2109 26.5711 30.3001 26.4597 30.4392C26.3483 30.5783 26.2967 30.756 26.3163 30.9331L27.6601 43.0271C27.6783 43.1913 27.7563 43.343 27.8792 43.4533C28.0022 43.5636 28.1614 43.6248 28.3266 43.6251ZM45.7971 43.6251C45.9753 43.6251 46.1462 43.5543 46.2722 43.4283C46.3982 43.3023 46.469 43.1314 46.469 42.9532V30.8592C46.469 30.681 46.3982 30.5101 46.2722 30.3841C46.1462 30.2581 45.9753 30.1873 45.7971 30.1873C45.6189 30.1873 45.448 30.2581 45.322 30.3841C45.196 30.5101 45.1252 30.681 45.1252 30.8592V42.9532C45.1252 43.1314 45.196 43.3023 45.322 43.4283C45.448 43.5543 45.6189 43.6251 45.7971 43.6251ZM53.7845 43.6211L53.8611 43.6251C54.0263 43.6248 54.1855 43.5636 54.3085 43.4533C54.4314 43.343 54.5094 43.1913 54.5276 43.0271L55.8714 30.9331C55.891 30.756 55.8394 30.5783 55.728 30.4392C55.6166 30.3001 55.4546 30.2109 55.2774 30.1913C55.1003 30.1717 54.9226 30.2233 54.7835 30.3347C54.6444 30.4461 54.5553 30.6082 54.5357 30.7853L53.1919 42.8793C53.1723 43.0562 53.2236 43.2337 53.3347 43.3728C53.4459 43.5118 53.6076 43.6011 53.7845 43.6211ZM59.2349 22.1246C59.3636 22.1246 59.4896 22.0875 59.5978 22.0179C59.7061 21.9483 59.7921 21.8491 59.8456 21.7321C59.8991 21.615 59.9179 21.485 59.8997 21.3576C59.8814 21.2302 59.827 21.1107 59.7428 21.0133L46.9769 6.23177C46.8581 6.10616 46.6954 6.03121 46.5227 6.02252C46.35 6.01383 46.1805 6.07205 46.0497 6.18509C45.9188 6.29812 45.8366 6.45726 45.8201 6.6294C45.8035 6.80153 45.854 6.9734 45.961 7.10925L58.7269 21.8908C58.7897 21.9642 58.8675 22.0231 58.9552 22.0634C59.0429 22.1038 59.1383 22.1247 59.2349 22.1246ZM36.8153 6.15114C36.6773 6.03865 36.5003 5.98551 36.3232 6.0034C36.1461 6.02129 35.9833 6.10874 35.8706 6.24655L23.7766 21.0281C23.7167 21.0959 23.6712 21.175 23.6426 21.2608C23.6141 21.3466 23.6032 21.4373 23.6105 21.5275C23.6178 21.6176 23.6433 21.7053 23.6853 21.7853C23.7274 21.8654 23.7852 21.9361 23.8552 21.9933C23.9253 22.0505 24.0061 22.093 24.093 22.1182C24.1798 22.1434 24.2708 22.1508 24.3606 22.14C24.4504 22.1291 24.5371 22.1003 24.6154 22.0552C24.6938 22.0101 24.7622 21.9496 24.8167 21.8774L36.9107 7.09582C37.0232 6.95784 37.0763 6.78086 37.0584 6.60374C37.0405 6.42662 36.9531 6.26384 36.8153 6.15114ZM68.6413 19.4371H63.2662C63.088 19.4371 62.9171 19.5079 62.7911 19.6339C62.6651 19.7599 62.5943 19.9308 62.5943 20.109C62.5943 20.2872 62.6651 20.4581 62.7911 20.5841C62.9171 20.7101 63.088 20.7809 63.2662 20.7809H68.6413C68.8195 20.7809 68.9904 20.7101 69.1164 20.5841C69.2424 20.4581 69.3132 20.2872 69.3132 20.109C69.3132 19.9308 69.2424 19.7599 69.1164 19.6339C68.9904 19.5079 68.8195 19.4371 68.6413 19.4371ZM31.0155 20.7809H52.516C52.6942 20.7809 52.8651 20.7101 52.9911 20.5841C53.1171 20.4581 53.1879 20.2872 53.1879 20.109C53.1879 19.9308 53.1171 19.7599 52.9911 19.6339C52.8651 19.5079 52.6942 19.4371 52.516 19.4371H31.0155C30.8373 19.4371 30.6664 19.5079 30.5404 19.6339C30.4144 19.7599 30.3436 19.9308 30.3436 20.109C30.3436 20.2872 30.4144 20.4581 30.5404 20.5841C30.6664 20.7101 30.8373 20.7809 31.0155 20.7809ZM13.5464 20.7809H20.2653C20.4435 20.7809 20.6144 20.7101 20.7404 20.5841C20.8664 20.4581 20.9372 20.2872 20.9372 20.109C20.9372 19.9308 20.8664 19.7599 20.7404 19.6339C20.6144 19.5079 20.4435 19.4371 20.2653 19.4371H13.5464C13.3682 19.4371 13.1973 19.5079 13.0713 19.6339C12.9453 19.7599 12.8745 19.9308 12.8745 20.109C12.8745 20.2872 12.9453 20.4581 13.0713 20.5841C13.1973 20.7101 13.3682 20.7809 13.5464 20.7809Z" fill="#282E14"/>
</g>
<defs>
<filter id="filter0_d_21_832" x="0.874512" y="0" width="80.4387" height="67" filterUnits="userSpaceOnUse" color-interpolation-filters="sRGB">
<feFlood flood-opacity="0" result="BackgroundImageFix"/>
<feColorMatrix in="SourceAlpha" type="matrix" values="0 0 0 0 0 0 0 0 0 0 0 0 0 0 0 0 0 0 127 0" result="hardAlpha"/>
<feOffset dy="6"/>
<feGaussianBlur stdDeviation="6"/>
<feComposite in2="hardAlpha" operator="out"/>
<feColorMatrix type="matrix" values="0 0 0 0 0.486275 0 0 0 0 0.596078 0 0 0 0 0.152941 0 0 0 0.78 0"/>
<feBlend mode="normal" in2="BackgroundImageFix" result="effect1_dropShadow_21_832"/>
<feBlend mode="normal" in="SourceGraphic" in2="effect1_dropShadow_21_832" result="shape"/>
</filter>
</defs>
</svg>
